<?xml version="1.0" standalone="no"?>
<!DOCTYPE svg PUBLIC "-//W3C//DTD SVG 20010904//EN"
 "http://www.w3.org/TR/2001/REC-SVG-20010904/DTD/svg10.dtd">
<svg version="1.0" xmlns="http://www.w3.org/2000/svg"
 width="700.000000pt" height="700.000000pt" viewBox="0 0 700.000000 700.000000"
 preserveAspectRatio="xMidYMid meet">
<metadata>
Created by potrace 1.11, written by Peter Selinger 2001-2013
</metadata>
<g transform="translate(0.000000,700.000000) scale(0.100000,-0.100000)"
fill="#000000" stroke="none">
<path d="M1900 6113 c-190 -394 -582 -1235 -1209 -2589 -558 -1207 -505 -1052
-505 -1474 0 -241 2 -272 22 -343 27 -98 63 -160 110 -189 l37 -23 998 -3 997
-2 0 -460 0 -460 393 2 392 3 3 408 2 407 190 0 190 0 0 545 0 545 -192 2
-193 3 4 1973 3 1972 -544 0 -545 0 -153 -317z m460 -2163 l0 -1180 -566 0
c-532 0 -566 1 -560 17 14 35 1119 2343 1123 2343 1 0 3 -531 3 -1180z"/>
<path d="M3642 3503 l3 -2928 403 -3 402 -2 0 1212 c0 730 4 1208 9 1203 5 -6
198 -365 429 -800 231 -434 519 -974 639 -1200 l219 -410 532 -3 c293 -1 532
0 532 3 0 8 -101 195 -929 1719 -430 792 -783 1442 -784 1446 -1 3 158 274
353 601 304 509 1142 1918 1217 2047 l25 42 -511 0 -510 0 -601 -1054 c-331
-580 -608 -1062 -615 -1073 -12 -15 -14 135 -15 1055 l0 1072 -400 0 -400 0 2
-2927z"/>
</g>
</svg>
